<svg xmlns="http://www.w3.org/2000/svg" xmlns:xlink="http://www.w3.org/1999/xlink" width="500" zoomAndPan="magnify" viewBox="0 0 375 116.249996" height="155" preserveAspectRatio="xMidYMid meet" version="1.0"><defs><clipPath id="eae55d1548"><path d="M 154.742188 5.53125 L 282.914062 5.53125 L 282.914062 115.074219 L 154.742188 115.074219 Z M 154.742188 5.53125 " clip-rule="nonzero"/></clipPath><clipPath id="3417eb2316"><path d="M 80.886719 0 L 191 0 L 191 115.503906 L 80.886719 115.503906 Z M 80.886719 0 " clip-rule="nonzero"/></clipPath><clipPath id="dc47692978"><path d="M 1.203125 5.433594 L 85 5.433594 L 85 27 L 1.203125 27 Z M 1.203125 5.433594 " clip-rule="nonzero"/></clipPath><clipPath id="8aca2fcdad"><path d="M 1.203125 49 L 85.410156 49 L 85.410156 115.503906 L 1.203125 115.503906 Z M 1.203125 49 " clip-rule="nonzero"/></clipPath><clipPath id="bf7209d6b4"><path d="M 281.289062 5.53125 L 373.695312 5.53125 L 373.695312 115.503906 L 281.289062 115.503906 Z M 281.289062 5.53125 " clip-rule="nonzero"/></clipPath></defs><g clip-path="url(#eae55d1548)"><path fill="#40e0d0" d="M 218.3125 5.53125 L 154.867188 115.425781 L 216.316406 115.425781 L 232.996094 86.535156 L 223.617188 72.332031 L 219.8125 78.925781 L 207.527344 100.203125 L 181.230469 100.203125 L 218.421875 35.785156 L 256.113281 99.992188 L 238.007812 99.992188 L 230.398438 115.210938 L 282.703125 115.210938 Z M 218.3125 5.53125 " fill-opacity="1" fill-rule="nonzero"/></g><g clip-path="url(#3417eb2316)"><path fill="#40e0d0" d="M 150.734375 78.816406 C 150.464844 76.691406 152.257812 74.898438 154.378906 75.171875 C 155.824219 75.355469 156.992188 76.519531 157.175781 77.96875 C 157.445312 80.089844 155.652344 81.882812 153.53125 81.613281 C 152.085938 81.425781 150.917969 80.261719 150.734375 78.816406 Z M 116.683594 4.167969 C 118.804688 3.898438 120.597656 5.691406 120.328125 7.8125 C 120.144531 9.257812 118.976562 10.425781 117.53125 10.609375 C 115.410156 10.878906 113.617188 9.085938 113.886719 6.964844 C 114.070312 5.519531 115.238281 4.351562 116.683594 4.167969 Z M 189.90625 5.324219 L 154.746094 5.324219 C 154.226562 5.324219 153.726562 5.523438 153.34375 5.875 L 115.316406 41.132812 C 115.125 41.308594 114.875 41.40625 114.613281 41.40625 L 86.046875 41.40625 C 85.480469 41.40625 85.015625 40.945312 85.015625 40.375 L 85.015625 10.484375 C 85.015625 9.914062 85.480469 9.453125 86.046875 9.453125 L 109.292969 9.453125 C 109.714844 9.453125 110.09375 9.707031 110.25 10.09375 C 111.378906 12.949219 114.242188 14.9375 117.535156 14.75 C 121.207031 14.542969 124.207031 11.585938 124.464844 7.917969 C 124.765625 3.613281 121.347656 0.0117188 117.109375 0.0117188 C 113.996094 0.0117188 111.332031 1.949219 110.25 4.679688 C 110.09375 5.070312 109.714844 5.324219 109.292969 5.324219 L 81.921875 5.324219 C 81.351562 5.324219 80.890625 5.785156 80.890625 6.355469 L 80.890625 44.503906 C 80.890625 45.074219 81.351562 45.535156 81.921875 45.535156 L 115.828125 45.535156 C 116.347656 45.535156 116.847656 45.335938 117.230469 44.984375 L 155.261719 9.726562 C 155.449219 9.550781 155.699219 9.453125 155.960938 9.453125 L 185.78125 9.453125 C 186.347656 9.453125 186.8125 9.914062 186.8125 10.484375 L 186.8125 40.375 C 186.8125 40.945312 186.347656 41.40625 185.78125 41.40625 L 153.539062 41.40625 C 153.269531 41.40625 153.011719 41.511719 152.820312 41.699219 L 116.4375 76.90625 C 116.035156 77.296875 115.808594 77.832031 115.808594 78.390625 L 115.808594 114.34375 C 115.808594 114.914062 116.269531 115.375 116.839844 115.375 L 154.988281 115.375 C 155.558594 115.375 156.019531 114.914062 156.019531 114.34375 L 156.019531 86.203125 C 156.019531 85.785156 156.273438 85.402344 156.664062 85.25 C 159.515625 84.117188 161.503906 81.257812 161.320312 77.964844 C 161.113281 74.292969 158.152344 71.292969 154.484375 71.035156 C 150.179688 70.730469 146.578125 74.148438 146.578125 78.390625 C 146.578125 81.503906 148.515625 84.167969 151.246094 85.25 C 151.636719 85.402344 151.890625 85.785156 151.890625 86.203125 L 151.890625 110.214844 C 151.890625 110.785156 151.429688 111.246094 150.859375 111.246094 L 120.96875 111.246094 C 120.398438 111.246094 119.9375 110.785156 119.9375 110.214844 L 119.9375 79.703125 C 119.9375 79.421875 120.050781 79.15625 120.25 78.960938 L 154.492188 45.824219 C 154.683594 45.640625 154.941406 45.535156 155.207031 45.535156 L 189.90625 45.535156 C 190.476562 45.535156 190.941406 45.074219 190.941406 44.503906 L 190.941406 6.355469 C 190.941406 5.785156 190.476562 5.324219 189.90625 5.324219 " fill-opacity="1" fill-rule="nonzero"/></g><g clip-path="url(#dc47692978)"><path fill="#40e0d0" d="M 54.304688 26.871094 L 84.269531 26.871094 L 84.269531 5.433594 L 1.21875 5.433594 L 1.21875 26.871094 Z M 54.304688 26.871094 " fill-opacity="1" fill-rule="nonzero"/></g><g clip-path="url(#8aca2fcdad)"><path fill="#40e0d0" d="M 25.253906 93.804688 L 25.253906 70.683594 L 77.125 70.683594 L 77.125 49.234375 L 1.21875 49.234375 L 1.21875 115.394531 L 85.03125 115.394531 L 85.03125 93.804688 Z M 25.253906 93.804688 " fill-opacity="1" fill-rule="nonzero"/></g><g clip-path="url(#bf7209d6b4)"><path fill="#40e0d0" d="M 345.582031 5.570312 L 345.582031 56.53125 L 314.9375 5.542969 L 281.292969 5.542969 L 347.257812 115.503906 L 373.785156 115.503906 L 373.785156 5.570312 Z M 281.292969 115.503906 L 309.496094 115.503906 L 309.496094 65.703125 L 281.292969 65.714844 Z M 281.292969 115.503906 " fill-opacity="1" fill-rule="nonzero"/></g></svg>