<svg xmlns="http://www.w3.org/2000/svg" width="500" zoomAndPan="magnify" viewBox="0 0 375 116.25" height="155" preserveAspectRatio="xMidYMid meet" xmlns:v="https://vecta.io/nano"><style><![CDATA[.B{clip-rule:nonzero}.C{fill:#012b52}]]></style><defs><clipPath id="A"><path d="M154.742 5.531h128.172v109.543H154.742zm0 0" class="B"/></clipPath><clipPath id="B"><path d="M80.887 0H191v115.504H80.887zm0 0" class="B"/></clipPath><clipPath id="C"><path d="M1.203 5.434H85V27H1.203zm0 0" class="B"/></clipPath><clipPath id="D"><path d="M1.203 49H85.41v66.504H1.203zm0 0" class="B"/></clipPath><clipPath id="E"><path d="M281.289 5.531h92.406v109.973h-92.406zm0 0" class="B"/></clipPath></defs><g clip-path="url(#A)" class="C"><path d="M218.313 5.531l-63.445 109.895h61.449l16.68-28.891-9.379-14.203-3.805 6.594-12.285 21.277H181.23l37.191-64.418 37.691 64.207h-18.105l-7.609 15.219h52.305zm0 0"/></g><g clip-path="url(#B)" class="C"><path d="M150.734 78.816a3.25 3.25 0 0 1 3.645-3.645c1.445.184 2.613 1.348 2.797 2.797.27 2.121-1.523 3.914-3.645 3.645-1.445-.187-2.613-1.352-2.797-2.797zM116.684 4.168c2.121-.27 3.914 1.523 3.645 3.645a3.26 3.26 0 0 1-2.797 2.797c-2.121.27-3.914-1.523-3.645-3.645a3.26 3.26 0 0 1 2.797-2.797zm73.223 1.156h-35.16c-.52 0-1.02.199-1.402.551l-38.027 35.258a1.04 1.04 0 0 1-.703.273H86.047c-.566 0-1.031-.461-1.031-1.031V10.484c0-.57.465-1.031 1.031-1.031h23.246a1.03 1.03 0 0 1 .957.641 7.38 7.38 0 0 0 7.285 4.656c3.672-.207 6.672-3.164 6.93-6.832a7.39 7.39 0 0 0-7.355-7.906c-3.113 0-5.777 1.938-6.859 4.668a1.03 1.03 0 0 1-.957.645H81.922a1.03 1.03 0 0 0-1.031 1.031v38.148a1.03 1.03 0 0 0 1.031 1.031h33.906c.52 0 1.02-.199 1.402-.551l38.031-35.258a1.02 1.02 0 0 1 .699-.273h29.82c.566 0 1.031.461 1.031 1.031v29.891c0 .57-.465 1.031-1.031 1.031h-32.242c-.27 0-.527.105-.719.293l-36.383 35.207a2.07 2.07 0 0 0-.629 1.484v35.953a1.03 1.03 0 0 0 1.031 1.031h38.148a1.03 1.03 0 0 0 1.031-1.031V86.203c0-.418.254-.801.645-.953 2.852-1.133 4.84-3.992 4.656-7.285a7.41 7.41 0 0 0-6.836-6.93c-4.305-.305-7.906 3.113-7.906 7.355 0 3.113 1.938 5.777 4.668 6.859.391.152.645.535.645.953v24.012a1.03 1.03 0 0 1-1.031 1.031h-29.891a1.03 1.03 0 0 1-1.031-1.031V79.703c0-.281.113-.547.313-.742l34.242-33.137a1.04 1.04 0 0 1 .715-.289h34.699c.57 0 1.035-.461 1.035-1.031V6.355c0-.57-.465-1.031-1.035-1.031"/></g><g clip-path="url(#C)" class="C"><path d="M54.305 26.871H84.27V5.434H1.219v21.438zm0 0"/></g><g clip-path="url(#D)" class="C"><path d="M25.254 93.805V70.684h51.871V49.234H1.219v66.16h83.813v-21.59zm0 0"/></g><g clip-path="url(#E)" class="C"><path d="M345.582 5.57v50.961L314.938 5.543h-33.645l65.965 109.961h26.527V5.57zm-64.289 109.934h28.203V65.703l-28.203.012zm0 0"/></g></svg>