<svg xmlns="http://www.w3.org/2000/svg" xmlns:xlink="http://www.w3.org/1999/xlink" width="500" zoomAndPan="magnify" viewBox="0 0 375 116.249996" height="155" preserveAspectRatio="xMidYMid meet" version="1.0"><defs><clipPath id="488037dfcd"><path d="M 154.742188 5.53125 L 282.914062 5.53125 L 282.914062 115.074219 L 154.742188 115.074219 Z M 154.742188 5.53125 " clip-rule="nonzero"/></clipPath><clipPath id="4aec9a3c37"><path d="M 80.886719 0 L 191.175781 0 L 191.175781 115.503906 L 80.886719 115.503906 Z M 80.886719 0 " clip-rule="nonzero"/></clipPath><clipPath id="4a992ad063"><path d="M 1.203125 5.433594 L 85 5.433594 L 85 27 L 1.203125 27 Z M 1.203125 5.433594 " clip-rule="nonzero"/></clipPath><clipPath id="c25a224cb5"><path d="M 1.203125 49 L 85.410156 49 L 85.410156 115.503906 L 1.203125 115.503906 Z M 1.203125 49 " clip-rule="nonzero"/></clipPath><clipPath id="8bc028e3b4"><path d="M 281.289062 5.53125 L 373.695312 5.53125 L 373.695312 115.503906 L 281.289062 115.503906 Z M 281.289062 5.53125 " clip-rule="nonzero"/></clipPath></defs><g clip-path="url(#488037dfcd)"><path fill="#000000" d="M 218.339844 5.53125 L 154.867188 115.109375 L 216.34375 115.109375 L 233.03125 86.304688 L 223.648438 72.140625 L 219.839844 78.714844 L 207.550781 99.933594 L 181.242188 99.933594 L 218.449219 35.699219 L 256.160156 99.71875 L 238.046875 99.71875 L 230.433594 114.898438 L 282.761719 114.898438 Z M 218.339844 5.53125 " fill-opacity="1" fill-rule="nonzero"/></g><g clip-path="url(#4aec9a3c37)"><path fill="#000000" d="M 150.882812 78.894531 C 150.613281 76.769531 152.410156 74.976562 154.535156 75.246094 C 155.984375 75.429688 157.152344 76.597656 157.339844 78.046875 C 157.609375 80.171875 155.8125 81.964844 153.6875 81.695312 C 152.234375 81.511719 151.066406 80.339844 150.882812 78.894531 Z M 116.761719 4.171875 C 118.886719 3.902344 120.683594 5.695312 120.410156 7.820312 C 120.226562 9.269531 119.058594 10.4375 117.609375 10.621094 C 115.480469 10.890625 113.6875 9.09375 113.957031 6.972656 C 114.140625 5.523438 115.3125 4.355469 116.761719 4.171875 Z M 190.136719 5.328125 L 154.902344 5.328125 C 154.382812 5.328125 153.878906 5.527344 153.496094 5.878906 L 115.386719 41.171875 C 115.195312 41.351562 114.945312 41.449219 114.683594 41.449219 L 86.058594 41.449219 C 85.488281 41.449219 85.027344 40.984375 85.027344 40.414062 L 85.027344 10.496094 C 85.027344 9.925781 85.488281 9.460938 86.058594 9.460938 L 109.355469 9.460938 C 109.773438 9.460938 110.15625 9.714844 110.3125 10.105469 C 111.445312 12.964844 114.3125 14.953125 117.609375 14.765625 C 121.292969 14.558594 124.300781 11.597656 124.558594 7.925781 C 124.859375 3.617188 121.433594 0.0117188 117.183594 0.0117188 C 114.066406 0.0117188 111.394531 1.953125 110.3125 4.683594 C 110.15625 5.074219 109.773438 5.328125 109.355469 5.328125 L 81.921875 5.328125 C 81.351562 5.328125 80.890625 5.792969 80.890625 6.363281 L 80.890625 44.546875 C 80.890625 45.117188 81.351562 45.582031 81.921875 45.582031 L 115.902344 45.582031 C 116.421875 45.582031 116.925781 45.382812 117.308594 45.03125 L 155.417969 9.738281 C 155.609375 9.5625 155.859375 9.460938 156.121094 9.460938 L 186 9.460938 C 186.574219 9.460938 187.035156 9.925781 187.035156 10.496094 L 187.035156 40.414062 C 187.035156 40.984375 186.574219 41.449219 186 41.449219 L 153.691406 41.449219 C 153.421875 41.449219 153.164062 41.554688 152.972656 41.738281 L 116.511719 76.984375 C 116.109375 77.375 115.882812 77.910156 115.882812 78.46875 L 115.882812 114.457031 C 115.882812 115.03125 116.347656 115.492188 116.917969 115.492188 L 155.144531 115.492188 C 155.714844 115.492188 156.179688 115.03125 156.179688 114.457031 L 156.179688 86.292969 C 156.179688 85.871094 156.429688 85.492188 156.824219 85.335938 C 159.683594 84.203125 161.675781 81.339844 161.488281 78.042969 C 161.28125 74.367188 158.316406 71.363281 154.640625 71.105469 C 150.324219 70.804688 146.71875 74.222656 146.71875 78.46875 C 146.71875 81.585938 148.660156 84.253906 151.394531 85.335938 C 151.789062 85.492188 152.042969 85.871094 152.042969 86.292969 L 152.042969 110.328125 C 152.042969 110.898438 151.578125 111.359375 151.007812 111.359375 L 121.054688 111.359375 C 120.484375 111.359375 120.019531 110.898438 120.019531 110.328125 L 120.019531 79.785156 C 120.019531 79.503906 120.132812 79.234375 120.335938 79.042969 L 154.648438 45.871094 C 154.839844 45.683594 155.097656 45.582031 155.367188 45.582031 L 190.136719 45.582031 C 190.707031 45.582031 191.171875 45.117188 191.171875 44.546875 L 191.171875 6.363281 C 191.171875 5.792969 190.707031 5.328125 190.136719 5.328125 " fill-opacity="1" fill-rule="nonzero"/></g><g clip-path="url(#4a992ad063)"><path fill="#000000" d="M 54.535156 26.933594 L 84.628906 26.933594 L 84.628906 5.433594 L 1.21875 5.433594 L 1.21875 26.933594 Z M 54.535156 26.933594 " fill-opacity="1" fill-rule="nonzero"/></g><g clip-path="url(#c25a224cb5)"><path fill="#000000" d="M 25.355469 94.066406 L 25.355469 70.875 L 77.449219 70.875 L 77.449219 49.363281 L 1.21875 49.363281 L 1.21875 115.722656 L 85.390625 115.722656 L 85.390625 94.066406 Z M 25.355469 94.066406 " fill-opacity="1" fill-rule="nonzero"/></g><g clip-path="url(#8bc028e3b4)"><path fill="#000000" d="M 345.519531 5.570312 L 345.519531 56.683594 L 314.90625 5.542969 L 281.292969 5.542969 L 347.191406 115.828125 L 373.691406 115.828125 L 373.691406 5.570312 Z M 281.292969 115.828125 L 309.46875 115.828125 L 309.46875 65.882812 L 281.292969 65.890625 Z M 281.292969 115.828125 " fill-opacity="1" fill-rule="nonzero"/></g></svg>